<svg id="Capa_1" enable-background="new 0 0 512 512" height="512" viewBox="0 0 512 512" width="512" xmlns="http://www.w3.org/2000/svg"><g><path d="m406 15h-113.54c-9.606-9.45-22.686-15-36.789-15-14.108 0-27.192 5.556-36.795 15h-112.876c-20.678 0-37.5 16.822-37.5 37.5v422c0 20.678 16.822 37.5 37.5 37.5h300c20.678 0 37.5-16.822 37.5-37.5v-422c0-20.678-16.822-37.5-37.5-37.5zm-150.329 0c15.33 0 28.967 9.181 34.763 23.434l19.442 46.936c1.16 2.803 3.896 4.63 6.929 4.63h29.195c9.778 0 18.119 6.27 21.215 15h-222.43c3.095-8.73 11.437-15 21.215-15h28.537c3.033 0 5.768-1.827 6.929-4.63l19.464-46.991c5.78-14.202 19.417-23.379 34.741-23.379zm172.829 459.5c0 12.407-10.094 22.5-22.5 22.5h-300c-12.407 0-22.5-10.093-22.5-22.5v-422c0-12.407 10.093-22.5 22.5-22.5h102.243c-.416.881-.818 1.771-1.188 2.682l-17.529 42.318h-23.526c-20.678 0-37.5 16.822-37.5 37.5 0 4.142 3.358 7.5 7.5 7.5h240c4.143 0 7.5-3.358 7.5-7.5 0-20.678-16.822-37.5-37.5-37.5h-24.184l-17.506-42.261c-.378-.93-.788-1.84-1.214-2.739h102.904c12.406 0 22.5 10.093 22.5 22.5z"/><path d="m406 45h-69.149c-4.143 0-7.5 3.358-7.5 7.5s3.357 7.5 7.5 7.5h61.649v144.5c0 28.949-23.552 52.5-52.5 52.5h-90c-4.142 0-7.5 3.358-7.5 7.5v90c0 28.949-23.551 52.5-52.5 52.5h-82.5v-347h60.992c4.142 0 7.5-3.358 7.5-7.5s-3.358-7.5-7.5-7.5h-68.492c-4.142 0-7.5 3.358-7.5 7.5v422c0 4.142 3.358 7.5 7.5 7.5h300c4.143 0 7.5-3.358 7.5-7.5v-422c0-4.142-3.357-7.5-7.5-7.5zm-142.5 227h82.5c2.407 0 4.783-.132 7.125-.379l-90.004 90.004c.247-2.342.379-4.718.379-7.125zm135 150v15h-285v-15zm-285 45v-15h285v15zm285-60h-160.139c1.863-1.506 3.654-3.1 5.346-4.793.022.022 150.023-149.978 150.023-149.978 1.67-1.715 3.263-3.505 4.77-5.369z"/><path d="m255.671 75c12.407 0 22.5-10.093 22.5-22.5s-10.093-22.5-22.5-22.5-22.5 10.093-22.5 22.5 10.094 22.5 22.5 22.5zm0-30c4.135 0 7.5 3.364 7.5 7.5s-3.364 7.5-7.5 7.5-7.5-3.364-7.5-7.5 3.365-7.5 7.5-7.5z"/></g></svg>