<?xml version="1.0" encoding="iso-8859-1"?>
<!-- Generator: Adobe Illustrator 19.0.0, SVG Export Plug-In . SVG Version: 6.00 Build 0)  -->
<svg version="1.1" id="Capa_1" xmlns="http://www.w3.org/2000/svg" xmlns:xlink="http://www.w3.org/1999/xlink" x="0px" y="0px"
	 viewBox="0 0 512 512" style="enable-background:new 0 0 512 512;" xml:space="preserve">
<rect x="322.777" y="261.316" transform="matrix(-0.7071 0.7071 -0.7071 -0.7071 820.6431 339.9193)" style="fill:#2D5872;" width="34.29" height="157.209"/>
<rect x="337.408" y="255.26" transform="matrix(-0.7071 0.7071 -0.7071 -0.7071 826.6994 325.2976)" style="fill:#1D4859;" width="17.14" height="157.208"/>
<path style="fill:#775146;" d="M507.258,482.849l-24.409,24.409c-6.322,6.322-16.572,6.322-22.894,0L338.742,386.045
	c-6.322-6.322-6.322-16.572,0-22.894l24.409-24.409c6.322-6.322,16.572-6.322,22.894,0l121.213,121.213
	C513.581,466.277,513.581,476.527,507.258,482.849z"/>
<path style="fill:#6A463D;" d="M363.151,338.742l-23.652,23.652c6.322-6.322,16.572-6.322,22.894,0l121.213,121.213
	c6.322,6.322,6.322,16.572,0,22.894l23.652-23.652c6.322-6.322,6.322-16.572,0-22.894L386.045,338.742
	C379.723,332.42,369.473,332.42,363.151,338.742z"/>
<circle style="fill:#FF4C4C;" cx="187.02" cy="187.02" r="187.02"/>
<path style="fill:#F33939;" d="M319.268,54.778c-42.68-42.68-100.853-60.406-156.413-53.206
	c39.52,5.121,77.719,22.848,108.077,53.206c73.037,73.037,73.037,191.453,0,264.49c-30.358,30.358-68.557,48.084-108.077,53.206
	c55.561,7.2,113.734-10.527,156.413-53.206C392.305,246.231,392.305,127.815,319.268,54.778z"/>
<circle style="fill:#E1EFFB;" cx="187.02" cy="187.02" r="153.45"/>
<path style="fill:#CCDFED;" d="M295.526,78.519C259.41,42.402,209.77,28.064,162.907,35.482c30.893,4.89,60.58,19.229,84.389,43.037
	c59.925,59.925,59.925,157.083,0,217.008c-23.809,23.809-53.496,38.147-84.389,43.037c46.863,7.418,96.503-6.921,132.619-43.037
	C355.452,235.602,355.452,138.444,295.526,78.519z"/>
<path style="fill:#21D8DE;" d="M190.448,83.876l-81.97,77.003v117.236c0,3.093,2.507,5.6,5.6,5.6h152.74c3.093,0,5.6-2.507,5.6-5.6
	V160.878L190.448,83.876z"/>
<path style="fill:#11B9C1;" d="M190.448,83.876L175.57,97.852l49.589,46.584v139.278h41.66c3.093,0,5.6-2.507,5.6-5.6V160.878
	L190.448,83.876z"/>
<path style="fill:#0FB0C0;" d="M301.261,188.411c-2.763,0-5.532-1.011-7.705-3.053L190.448,88.499L87.34,185.359
	c-4.531,4.258-11.656,4.034-15.912-0.497c-4.257-4.531-4.035-11.656,0.497-15.912L182.74,64.85c4.332-4.07,11.083-4.07,15.415,0
	l110.815,104.1c4.531,4.257,4.754,11.381,0.497,15.912C307.253,187.22,304.26,188.411,301.261,188.411z"/>
<path style="fill:#2D5871;" d="M211.49,180.554h-42.083c-1.975,0-3.575,1.601-3.575,3.575v99.585h49.234v-99.585
	C215.065,182.155,213.464,180.554,211.49,180.554z"/>
<g>
</g>
<g>
</g>
<g>
</g>
<g>
</g>
<g>
</g>
<g>
</g>
<g>
</g>
<g>
</g>
<g>
</g>
<g>
</g>
<g>
</g>
<g>
</g>
<g>
</g>
<g>
</g>
<g>
</g>
</svg>
