<svg id="gallery-cloud" enable-background="new 0 0 300 300" height="512" viewBox="0 0 300 300" width="512" xmlns="http://www.w3.org/2000/svg"><g><path d="m64 58c7.719 0 14-6.281 14-14s-6.281-14-14-14-14 6.281-14 14 6.281 14 14 14zm0-20c3.309 0 6 2.691 6 6s-2.691 6-6 6-6-2.691-6-6 2.691-6 6-6z"/><circle cx="256" cy="78" r="5"/><path d="m128.102 80.238c.637.375 1.336.555 2.027.555 1.371 0 2.703-.703 3.449-1.969 4.66-7.91 13.254-12.824 22.422-12.824 2.211 0 4-1.789 4-4s-1.789-4-4-4c-11.988 0-23.223 6.422-29.312 16.762-1.122 1.902-.489 4.355 1.414 5.476z"/><path d="m114 230h-4c-8.824 0-16-7.176-16-16v-40h111c21.504 0 39-17.371 39-38.727 0-21.027-16.969-38.195-38.023-38.711.242-1.988.363-3.973.363-5.934 0-28.105-23.031-50.969-51.34-50.969-21.992 0-41.27 13.809-48.406 34.113-3.707-1.336-7.641-2.027-11.594-2.027-15.527 0-28.824 10.289-32.785 24.902-20.211 1.423-36.215 18.205-36.215 38.626 0 21.356 17.496 38.727 39 38.727h21v40c0 13.234 10.766 24 24 24h4c2.211 0 4-1.789 4-4s-1.789-4-4-4zm-49-64c-17.094 0-31-13.785-31-30.727s13.906-30.723 30.961-30.723c.09.008.395.02.484.02 1.953 0 3.621-1.41 3.945-3.336 2.098-12.449 12.872-21.488 25.61-21.488 4.262 0 8.496 1.051 12.242 3.039 1.086.574 2.375.617 3.5.121 1.125-.5 1.953-1.488 2.254-2.68 4.82-19.175 22.094-32.566 42.004-32.566 23.898 0 43.34 19.277 43.34 42.969 0 3.043-.352 6.16-1.043 9.266-.277 1.254.066 2.57.922 3.531.859.965 2.141 1.461 3.406 1.312 1.113-.117 2.234-.188 3.375-.188 17.094 0 31 13.781 31 30.723s-13.906 30.727-31 30.727h-111v-20.934c0-6.101 4.965-11.066 11.066-11.066h4.934l-6.399 4.801c-1.77 1.324-2.129 3.832-.801 5.598.785 1.051 1.984 1.602 3.203 1.602.836 0 1.676-.262 2.395-.801l16-12c1.008-.754 1.602-1.941 1.602-3.199s-.594-2.445-1.602-3.199l-16-12c-1.762-1.324-4.273-.969-5.598.801-1.328 1.766-.969 4.273.801 5.598l6.399 4.799h-4.934c-10.511 0-19.066 8.555-19.066 19.066v20.934z"/><path d="m190 194h-64c-2.211 0-4 1.789-4 4v68c0 2.211 1.789 4 4 4h64c2.211 0 4-1.789 4-4v-68c0-2.211-1.789-4-4-4zm-4 8v14.001l-18.527 21.28-18.734-7.027c-1.422-.531-3.027-.211-4.141.828l-14.598 13.686v-42.768zm0 26.179v21.821h-49.887l12.141-11.383 19.008 7.129c1.566.586 3.324.141 4.422-1.121zm-56 33.821v-4h56v4z"/><path d="m144 226c5.516 0 10-4.484 10-10s-4.484-10-10-10-10 4.484-10 10 4.484 10 10 10zm0-12c1.102 0 2 .898 2 2s-.898 2-2 2-2-.898-2-2 .898-2 2-2z"/><path d="m270 194h-64c-2.211 0-4 1.789-4 4v68c0 2.211 1.789 4 4 4h64c2.211 0 4-1.789 4-4v-68c0-2.211-1.789-4-4-4zm-4 8v14.001l-18.527 21.28-18.734-7.027c-1.422-.531-3.027-.211-4.141.828l-14.598 13.686v-42.768zm0 26.179v21.821h-49.887l12.141-11.383 19.008 7.129c1.566.586 3.328.141 4.422-1.121zm-56 33.821v-4h56v4z"/><path d="m224 226c5.516 0 10-4.484 10-10s-4.484-10-10-10-10 4.484-10 10 4.484 10 10 10zm0-12c1.102 0 2 .898 2 2s-.898 2-2 2-2-.898-2-2 .898-2 2-2z"/></g></svg>